<?xml version="1.0" encoding="utf-8"?>
<!-- Generator: Adobe Illustrator 21.0.0, SVG Export Plug-In . SVG Version: 6.00 Build 0)  -->
<svg version="1.2" baseProfile="tiny" xmlns="http://www.w3.org/2000/svg" xmlns:xlink="http://www.w3.org/1999/xlink" x="0px"
	 y="0px" viewBox="0 0 331 446" xml:space="preserve">
<g id="BACKGROUND">
</g>
<g id="OBJECTS">
	<g>
		<path fill="#383849" d="M97.7,116.8c-2.5,6.5-2.7,13.6-2.9,20.6c-0.3,10.8-0.7,21.6-1,32.4c-0.3,8.3-0.3,17.1,4.4,23.9
			c14.8,21.4,52.7,14,73.9,11c6.1-0.9,12.8-2,16.7-6.8c5.1-6.2,3.7-15.9,3.3-23.3c-0.6-13.1-1.9-26.2-3.1-39.2
			c-1-11.2-1.2-23.8-8-33.3c-4.6-6.4-12.3-9.8-20-10.9C137.3,87.7,107.4,90.8,97.7,116.8z"/>
		<g>
			<path fill="#383849" d="M150.7,307.4c4.8-13.7,10.4-27.1,14.9-40.8c4.2-12.7,7.7-25.5,11-38.4c-3.2-3.2-7.6-5.5-11.3-7.5
				c-7.1-3.9-15-7.6-23.5-7c-6.9,0.5-14.1,4.4-17,11c-1.4,3.2-1.7,6.6-2,10c-1.8,21.8-3.7,43.6-5.5,65.5
				c-9.9,12.7-18.2,26.9-24.7,41.6c-2.6,6-5,12.1-6.7,18.3c-0.9,3.4-1.4,4.8,0.4,7.8c1.9,3.2,4.3,6,7.2,8.2c1.2,0.9,2.6,1.8,4.1,1.6
				c1.7-0.2,3.1-1.8,4.2-3.2c4.2-5.1,8.3-10.2,12.5-15.3l31.7-39.5C146,319.8,149.5,311,150.7,307.4z"/>
			<g>
				<path fill="#7D97FF" d="M100.4,422.7c0.6-2.8,1.1-6.6,1-7c-0.2-3.5-1.2-6.9-2.7-10c-1.4-3.1-7.8-8.9-7.8-8.9s14-17.8,16.6-21.9
					c-0.5-1.1-15.8-15.9-25-18.2c-3.8,7.6-8.3,14.8-13.4,21.5c-2.4,3.1-14.3,16.1-13.3,17.7c0.2,0.3,3.1,3.1,6.3,4.7
					c2.3,1.2,4.7,0.7,6.9,2.4c4.3,3.3,6.2,6.9,11.3,11.2c6.2,5.2,13,8.8,18.2,11.1L100.4,422.7z"/>
				<path fill="#383849" d="M100.3,423c-5.1-2.4-12.1-6-18.3-11.2c-5.1-4.3-7-8-11.3-11.2c-2.2-1.7-4.5-1.3-6.9-2.4
					c-3.2-1.6-6.2-4.5-6.3-4.7c-0.1-0.2-0.1-0.6,0.2-1.1c-1.3,1.8-2,3.1-1.7,3.6c0.2,0.3,3.1,3.1,6.3,4.7c2.3,1.2,4.7,0.7,6.9,2.4
					c4.3,3.3,6.2,6.9,11.3,11.2c6.2,5.2,13,8.8,18.2,11.1L100.3,423z"/>
			</g>
		</g>
		<g>
			<g>
				<path fill="#FFAE90" d="M161.5,94.6L161.5,94.6c-5.5-0.5-10.5-4.1-10.5-4.1l3.5-29.3l19.8,1.8l-3.5,29.3
					C170.8,92.4,167,95.1,161.5,94.6z"/>
			</g>
			<path fill="#FF906E" d="M174.4,63L174.4,63l-19.8-1.8l0,0l-0.2,2.4c0.9,2.4,1.6,5,2.7,7.3c1.4,3.1,3.4,5.8,5.7,8.3
				c2.6,2.8,5.6,5.2,8.8,7.2L174.4,63z"/>
		</g>
		<g>
			<path fill="#FFAE90" d="M189,55.4c0,1.5-0.1,2.9-0.2,4.4c-0.3,4.5-2.2,14.1-4.6,20c-1.1,2.8-10,1.5-13,0
				C161.5,75,155,68.9,152,63.8c-1.6-2.7-2-7.4-2.6-10.5c-1.9-10.2,3.3-22,12.9-26.6c10.2-4.9,22.2,3.6,25.8,13.1
				C190.1,44.7,189.2,50.3,189,55.4z"/>
			<path fill="#FF906E" d="M158.6,36.7c1,1.5,1.9,3,2.9,4.4c2.3,3.2,5.8,5.2,9.4,6.7c3.9,1.7,8.1,2.8,12.3,3.5
				c1.9,0.3,3.9,0.6,5.8,0.5c0.1-23.2-7.9-29.4-19.6-29.9c-6.2-0.3-10.3,5.4-13,10.6C157,34.1,157.7,35.4,158.6,36.7z"/>
			<path fill="#BD4444" d="M195,41.4c-0.9-0.2-1.9-0.8-2.7-1.5c-0.6-0.5-1.1-1.1-1.5-1.6c-1.2-1.9-1.8-4.1-2.5-6.2
				c-1.4-3.8-4.2-7.1-7.7-9.1c-3.1-1.8-6.7-2.5-10.2-2.6c-3.9-0.1-7.8,0.8-11.3,2.6c-1.5,0.8-3.1,1.9-4.2,3.2
				c-0.3,0.4-2.7,4.4-2,4.7c-1.1-0.4-2.4,0.1-3.2,0.9c-0.8,0.9-1.2,2-1.6,3.1c-1.1,3.5-1.8,7.7-1.5,11.3c0.2,1.8,0.6,3.6,1.2,5.2
				c0.3,0.8,0.7,1.7,1.1,2.5c0.3,0.6,1.1,1.4,1.2,2c0.3,1.3,0.7,2.6,1.9,3.3c0.3,0.2,0.5,0.3,0.8,0.4h5.4c0.1-2.4,0.3-4.8,0.4-7.2
				c0-0.3,2.3-0.5,2.5-0.9c0.2-0.2,0.2-0.6,0.3-0.9c0.2-1.7,0.2-3.5,0.1-5.3c-0.1-0.9-1.1-4.6-0.5-5c2.5,2.3,5.2,3.4,8.4,4.4
				c4.7,1.3,9.5,2.5,14.4,2.2c4.1-0.2,8.2-1.6,11.3-4.2C195.9,42.4,195.7,41.6,195,41.4z"/>
			<g>
				<path fill="#BD4444" d="M184.6,51.8c1.8-0.6,3.6-0.3,5.3,0.5c0.7,0.3,1.3-0.7,0.6-1c-2-1-4.1-1.3-6.2-0.7
					C183.6,50.9,183.9,52.1,184.6,51.8L184.6,51.8z"/>
			</g>
			<g>
				<path fill="#BD4444" d="M175.9,50.4c-2.9-0.7-5.7-0.5-8.5,0.4c-0.7,0.2-0.4,1.4,0.3,1.1c2.6-0.9,5.2-1,7.9-0.4
					C176.3,51.7,176.6,50.6,175.9,50.4L175.9,50.4z"/>
			</g>
			<g>
				<path fill="#383849" d="M172.6,59.5c1.1,0,2.1-1,2-2.1c-0.1-1.1-0.9-2.1-2-2c-1.1,0-2.1,1-2,2.1
					C170.6,58.6,171.5,59.5,172.6,59.5L172.6,59.5z"/>
			</g>
			<g>
				<path fill="#383849" d="M186.4,59.5c1.1,0,2.1-1,2-2.1c-0.1-1.1-0.9-2.1-2-2c-1.1,0-2.1,1-2,2.1
					C184.4,58.6,185.2,59.5,186.4,59.5L186.4,59.5z"/>
			</g>
			
				<path fill="none" stroke="#ED714B" stroke-width="0.7863" stroke-linecap="round" stroke-linejoin="round" stroke-miterlimit="10" d="
				M180.9,56.7c0.1,1.5,0.5,3,0.9,4.4c0.6,1.9,1.4,2.9,2.7,4.3c0.1,0.1-1.6,2.3-4.5,1.8"/>
			<path fill="#FFAE90" d="M150.8,63.3c0.5,1,4.5,5.9,5.8,3.9c0.7-1,0.2-3.6,0.1-4.7c-0.2-1.6-0.5-3.2-0.9-4.8
				c-0.3-1.1-0.8-2.3-1.8-3.1c-2-1.5-4-0.2-4.5,1.8C148.8,58.7,149.7,61.2,150.8,63.3z"/>
			
				<path fill="none" stroke="#ED714B" stroke-width="0.7863" stroke-linecap="round" stroke-linejoin="round" stroke-miterlimit="10" d="
				M175.6,71.5c2.4,1.1,5.2,1.3,7.8,0.5"/>
			
				<line fill="none" stroke="#FF906E" stroke-width="0.7863" stroke-linecap="round" stroke-miterlimit="10" x1="178.3" y1="75.2" x2="181.5" y2="75.2"/>
			
				<path fill="none" stroke="#ED714B" stroke-width="0.7863" stroke-linecap="round" stroke-linejoin="round" stroke-miterlimit="10" d="
				M150.5,57.3c0.1-0.7,1-1.2,1.8-1c0.6,0.2,1,0.8,1.3,1.3c0.7,1.4,1.2,2.9,1.4,4.5c-0.4,0.2-0.6,0.6-0.6,1c0,0.4,0.3,0.8,0.8,0.9"
				/>
			<path fill="none" stroke="#BD4444" stroke-width="0.3932" stroke-miterlimit="10" d="M152.9,32.2c-0.4-4.6,1.8-9.3,5.6-11.8"/>
			<path fill="none" stroke="#BD4444" stroke-width="0.3932" stroke-miterlimit="10" d="M162.5,40.6c8.5,6.2,19.7,8.5,29.9,6.1"/>
		</g>
		<g>
			<g>
				<path fill="#ABC6FF" d="M217.1,152.2c-6.8-10.7-12.5-22-18.6-33c-2.5-4.6-5.3-9.2-8.6-13.2c-2-2.4-4.2-4.7-6.9-6.5
					c-12.5-6.1-22,9.8-21.6,20.6c0.2,6.2,2.4,12.1,5,17.7c4.9,10.5,11.7,20.1,19.8,28.4c5.2,5.2,16.2,17.4,24.4,15.6
					c4.7-1,8.3-5.1,9.9-9.6c1.5-4.1,1.6-8.6,1.2-13C220.1,156.8,218.6,154.5,217.1,152.2z"/>
				
					<path fill="none" stroke="#ABC6FF" stroke-width="0.6771" stroke-linecap="round" stroke-linejoin="round" stroke-miterlimit="10" d="
					M184.9,163.4c4.3-10.4,13.3-18.7,24-22.3"/>
				
					<path fill="none" stroke="#ABC6FF" stroke-width="0.6771" stroke-linecap="round" stroke-linejoin="round" stroke-miterlimit="10" d="
					M169.1,143.4c4.8-12,16.9-20.7,29.8-21.5"/>
			</g>
			<g>
				<g>
					<path fill="#ABC6FF" d="M248.9,157.4c4,0.5,8.1,1.1,11.8,2.8c3.7,1.7,6.9,4.8,7.8,8.7c1.2,5.3-2.3,10.7-6.9,13.5
						c-4.6,2.8-10.2,3.5-15.6,4c-11.4,1-23.1,1-34.3-1.8c-5.6-1.4-11.3-3.7-14.7-8.3c-6.2-8.4-1.4-23,9.6-24.2
						c5.8-0.6,12.7,1.4,18.5,2.2C233,155.3,241,156.4,248.9,157.4z"/>
				</g>
				<g>
					<path fill="#7D97FF" d="M269,178.8c0.4-4.7,0.7-9.3,1.1-14c0.1-1.2-6.8-4.1-8.9-3c-1.4,0.7-2.6,4.7-3.3,8.7
						c-0.7,3.9,0.6,9,2.7,11.5C263.3,181.8,268.9,179.5,269,178.8z"/>
					<path fill="#383849" d="M269.4,164.8c0,0-2.8-1.4-3.8,3c-0.3,1.2-0.5,5.6-0.6,6.7c-0.3,3.4,3.2,3.9,3.2,3.9L269.4,164.8z"/>
					
						<path fill="none" stroke="#383849" stroke-width="0.6771" stroke-linecap="round" stroke-linejoin="round" stroke-miterlimit="10" d="
						M260.6,163.1c2.4,0.4,4.7,1.4,6.6,2.9"/>
					
						<path fill="none" stroke="#383849" stroke-width="0.6771" stroke-linecap="round" stroke-linejoin="round" stroke-miterlimit="10" d="
						M258.9,166.8c2.7,0.2,5.5,0.5,8.2,0.7"/>
					
						<path fill="none" stroke="#383849" stroke-width="0.6771" stroke-linecap="round" stroke-linejoin="round" stroke-miterlimit="10" d="
						M258.2,170.6c2.7,0.1,5.3,0.1,8,0.2"/>
					
						<path fill="none" stroke="#383849" stroke-width="0.6771" stroke-linecap="round" stroke-linejoin="round" stroke-miterlimit="10" d="
						M258.2,175.1c2.6-0.1,5.1-0.4,7.6-1"/>
					
						<path fill="none" stroke="#383849" stroke-width="0.6771" stroke-linecap="round" stroke-linejoin="round" stroke-miterlimit="10" d="
						M259.6,179.4c2.6-0.4,5.1-1.3,7.3-2.7"/>
				</g>
				
					<path fill="none" stroke="#ABC6FF" stroke-width="0.6771" stroke-linecap="round" stroke-linejoin="round" stroke-miterlimit="10" d="
					M195.5,171.4c4.3-8.2,12.1-15,22.6-18.2"/>
				
					<path fill="none" stroke="#ABC6FF" stroke-width="0.6771" stroke-linecap="round" stroke-linejoin="round" stroke-miterlimit="10" d="
					M216.9,185.8c4.1-10.4,7.8-22,15.9-30.3"/>
				
					<path fill="none" stroke="#ABC6FF" stroke-width="0.6771" stroke-linecap="round" stroke-linejoin="round" stroke-miterlimit="10" d="
					M240.5,187.1c0.6-7.8,4.5-22.8,9-29.5"/>
			</g>
			<g>
				<path fill="#FF906E" d="M279.8,166.5l-2.5-0.3l-4.1-1.6c-1.1-0.4-2.3-0.2-3.2,0.6l-3.2,3c-0.3,0.3-0.4,0.6-0.4,1l0.3,5.4
					c0,0.4,0.2,0.7,0.5,1l1.2,0.8c2.2,1.5,4.9,2.4,7.6,2.4l1.3,0c0.8,0,1.5-0.5,1.7-1.3l2.1-8.9
					C281.5,167.6,280.8,166.6,279.8,166.5z"/>
				<g>
					<path fill="#FF906E" d="M271,168.4c2.3-1.4,3.9-3.8,4.6-6.4c0.4-1.5-1.9-2.1-2.3-0.6c-0.5,2-1.7,3.8-3.5,5
						C268.5,167.1,269.7,169.2,271,168.4L271,168.4z"/>
				</g>
			</g>
			<g>
				
					<line fill="none" stroke="#383849" stroke-width="1.5726" stroke-linejoin="round" stroke-miterlimit="10" x1="278" y1="125.7" x2="262.7" y2="417.4"/>
				
					<line fill="none" stroke="#383849" stroke-width="2.359" stroke-linejoin="round" stroke-miterlimit="10" x1="278" y1="125.7" x2="267" y2="335.5"/>
				
					<line fill="none" stroke="#383849" stroke-width="3.1453" stroke-linejoin="round" stroke-miterlimit="10" x1="278" y1="125.7" x2="273.5" y2="212.2"/>
			</g>
			<g>
				<g>
					<path fill="#FFAE90" d="M273.7,167.8c2.3,0.1,4.6,0,6.9-0.2c1.5-0.2,1.5-2.5,0-2.4c-2.3,0.2-4.6,0.3-6.9,0.2
						C272.1,165.4,272.1,167.7,273.7,167.8L273.7,167.8z"/>
				</g>
				<g>
					<path fill="#FFAE90" d="M273.1,171.5c2.8,0.5,5.5,0.1,8-1.1c1.4-0.6,0.2-2.7-1.2-2c-2,0.9-4.1,1.2-6.2,0.8
						C272.2,169,271.6,171.3,273.1,171.5L273.1,171.5z"/>
				</g>
				<g>
					<path fill="#FFAE90" d="M279.1,172c-1.2,0.9-2.4,1.3-3.9,1.2c-1.5-0.1-1.5,2.3,0,2.4c1.8,0.1,3.6-0.4,5.1-1.5
						C281.5,173.1,280.3,171.1,279.1,172L279.1,172z"/>
				</g>
				<g>
					<path fill="#FFAE90" d="M277.7,175.7c-0.1,0.3-0.4,0.5-0.7,0.6c-1.5,0.4-0.8,2.7,0.6,2.3c1.1-0.3,2-1.1,2.3-2.2
						c0.2-0.6-0.2-1.3-0.8-1.5C278.5,174.7,277.9,175.1,277.7,175.7L277.7,175.7z"/>
				</g>
			</g>
			<g>
				<path fill="#383849" d="M162,98.4c10.8-3.5,22.3,2.3,27.9,11.8c5.8,9.9,5.7,22.6,3.2,33.4c-5.2,21.7-24.2,40.3-47.8,36.7
					c-2-0.3-2.8,2.7-0.8,3c26.6,4.1,47.8-17.1,52.3-42c2.2-12,1.5-25.7-6.2-35.8c-6.7-8.9-18.6-13.7-29.4-10.2
					C159.3,95.9,160.1,99,162,98.4L162,98.4z"/>
			</g>
		</g>
		<g>
			<g>
				<path fill="#55556B" d="M176,207.7c-12.7-11-39.3-8.6-46.1-0.4c-4,4.8-7.8,10.5-7.6,17.1c0.1,4.2,11.4,29.5,13.1,33.5
					c5.3,12.7,10.6,25.4,15.9,38.2c5.1,12.3,10.7,22.7,11,35.7c0.2,10.6,2.6,21.2,6.9,31.2c3.5,8.2,12.7,26,15.6,31.5
					c3.9,1.2,8.4,0.6,12.1-0.1c3.2-0.6,6.5-1.3,9.5-2.5c-0.5-2-1.1-3.9-1.6-5.9c-1-4-1.9-8.1-2.8-12.1c-1.8-8.1-3.3-16.2-4.6-24.4
					c-2.6-16.3-4.2-32.7-4.9-49.1c-0.2-4.2-0.4-8.3-0.6-12.5c-1-20-2.5-40.2-6.5-59.9C183.7,220.5,181.6,212.6,176,207.7z"/>
			</g>
			<g>
				<path fill="#7D97FF" d="M239.9,409.2c-1.9-2.2-5-5-5.4-5.2c-3-2-6.4-3.1-9.8-3.8c-3.4-0.7-12,0.8-12,0.8s-6.3-21.6-8.2-26
					c-1.2-0.3-22.4,3-29.8,8.9c4,7.5,7.3,15.3,9.8,23.3c1.2,3.7,4.7,20.8,6.7,20.9c1.6,0.1,34.9-8.6,49.2-15.8
					C240.3,411.2,240.1,410.2,239.9,409.2z"/>
				<path fill="#383849" d="M239.9,409.2c-13.9,7.3-48.3,16.3-49.9,16.2c-0.1,0-0.3-0.1-0.4-0.3c0.6,1.7,1.2,2.8,1.7,2.8
					c1.6,0.1,34.9-8.6,49.2-15.8C240.3,411.2,240.1,410.2,239.9,409.2z"/>
			</g>
		</g>
		<g>
			<path fill="#DBE3FF" d="M127.5,92.2c0.9-4,2.8-9.1,5.3-12.1c4.4-5.3,13.1-7.3,20-5.8c0,0,9.2,20.7,18.1,17.4l1.2-10.6
				c0,0,7.2,2.9,7.3,8.9c0.2,5.9,0,6.9,0,6.9s14.8,9.3,16.2,56.1s5.9,30.2,6.4,62.7l-0.5,9c-0.2,3.7-2.8,6.9-6.4,7.9
				c-12.2,3.4-41.8,9.2-79.2,0.6c-7.1-1.6-11.6-8.7-10.1-15.8c3.5-16.8,6.8-33.6,9.7-50.5c1.7-10,3.4-20,4.4-30
				c0.6-6.2,1.3-12.3,2.8-18.4c0.9-3.5,2-6.9,3.2-10.3c0.5-1.2,3.6-8.4,3.6-8.4S126.4,97.3,127.5,92.2z"/>
			
				<path fill="none" stroke="#ABC6FF" stroke-width="0.6771" stroke-linecap="round" stroke-linejoin="round" stroke-miterlimit="10" d="
				M115.1,170.6c23.9,5.8,57.2,7.6,81.1,1.3"/>
			
				<path fill="none" stroke="#ABC6FF" stroke-width="0.6771" stroke-linecap="round" stroke-linejoin="round" stroke-miterlimit="10" d="
				M108.1,207.8c29.5,7.3,68.9,9,92.9,1.7"/>
			
				<path fill="none" stroke="#ABC6FF" stroke-width="0.6771" stroke-linecap="round" stroke-linejoin="round" stroke-miterlimit="10" d="
				M120.5,133.2c23,5.1,50,5.1,73,0"/>
			
				<path fill="none" stroke="#ABC6FF" stroke-width="0.6771" stroke-linecap="round" stroke-linejoin="round" stroke-miterlimit="10" d="
				M126.2,103.6c18.4,4.9,39.6,4.4,57.8-1.1"/>
			
				<path fill="none" stroke="#383849" stroke-width="0.6771" stroke-linecap="round" stroke-linejoin="round" stroke-miterlimit="10" d="
				M170.7,91.9c10.3,10.5,14.2,25.8,15.6,40.1c1.5,14.6-0.9,29.5,1.4,43.8c0.7,4.7,1.5,9.4,2.2,14c2.4,15,5,28.7,0.4,43.1"/>
			
				<path fill="none" stroke="#383849" stroke-width="0.6771" stroke-linecap="round" stroke-linejoin="round" stroke-miterlimit="10" d="
				M142.6,201c6,0.8,12.4-1.2,16.9-5.3c4.5-4.1,7.1-10.2,7-16.3"/>
			
				<path fill="none" stroke="#ABC6FF" stroke-width="0.6771" stroke-linecap="round" stroke-linejoin="round" stroke-miterlimit="10" d="
				M137.7,92.7c10.9,3.3,22.3,4.8,33.7,4.3"/>
			
				<path fill="none" stroke="#ABC6FF" stroke-width="0.6771" stroke-linecap="round" stroke-linejoin="round" stroke-miterlimit="10" d="
				M140.9,97c9.1,0.1,18.2,0.1,27.3,0.2"/>
			
				<path fill="none" stroke="#ABC6FF" stroke-width="0.6771" stroke-linecap="round" stroke-linejoin="round" stroke-miterlimit="10" d="
				M176.9,97c1.1-0.2,2.1-0.5,3.2-0.7"/>
			<circle fill="#383849" cx="167" cy="94.6" r="0.7"/>
			<circle fill="#383849" cx="176" cy="94.6" r="0.7"/>
			<g>
				<path fill="#383849" d="M166.9,94.5c1.3,5.1,1.7,10.2,1.4,15.4c0,0.3,0.4,0.3,0.4,0c0.3-5.3-0.1-10.4-1.4-15.5
					C167.3,94.2,166.9,94.3,166.9,94.5L166.9,94.5z"/>
			</g>
			<g>
				<path fill="#383849" d="M176.1,94.9c2.4,4.6,4.6,9.2,6.6,14c0.1,0.2,0.5,0.1,0.4-0.1c-2-4.8-4.2-9.5-6.6-14.1
					C176.3,94.5,176,94.7,176.1,94.9L176.1,94.9z"/>
			</g>
		</g>
		<g>
			<g>
				<path fill="#DBE3FF" d="M104.3,127.1c-5.3,9.3-8.7,19.8-9.8,30.3c-0.5,4.8-0.6,9.7,1.1,14.2c1.6,4.5,5.3,8.5,9.9,9.6
					c8.2,1.8,19.2-10.4,24.4-15.6c8.2-8.2,14.9-17.9,19.8-28.4c2.6-5.6,4.7-11.5,5-17.7c0.4-10.9-9.3-27-22-20.4
					C120.7,105.3,111,115.3,104.3,127.1z"/>
				
					<path fill="none" stroke="#ABC6FF" stroke-width="0.6771" stroke-linecap="round" stroke-linejoin="round" stroke-miterlimit="10" d="
					M125.5,103.4c4.1-1.7,9-0.9,12.7,1.5c3.7,2.4,6.3,6.3,8,10.4c1.7,4.1,2.4,8.5,3.1,12.9"/>
				
					<path fill="none" stroke="#ABC6FF" stroke-width="0.6771" stroke-linecap="round" stroke-linejoin="round" stroke-miterlimit="10" d="
					M109.9,119.2c4.9,0,9.9,1.9,13.7,5c3.8,3.2,6.4,7.7,7.3,12.6"/>
				
					<path fill="none" stroke="#ABC6FF" stroke-width="0.6771" stroke-linecap="round" stroke-linejoin="round" stroke-miterlimit="10" d="
					M96.7,147c6.6-3.6,13.4-3.5,20.1-0.2"/>
			</g>
		</g>
		<g>
			<g>
				<path fill="#383849" d="M122.5,103c10.8-3.5,22.3,2.3,27.9,11.8c5.8,9.9,5.7,22.6,3.2,33.4c-5.2,21.7-24.2,40.3-47.8,36.7
					c-2-0.3-2.8,2.7-0.8,3c26.6,4.1,47.8-17.1,52.3-42c2.2-12,1.5-25.7-6.2-35.8c-6.7-8.9-18.6-13.7-29.4-10.2
					C119.8,100.6,120.6,103.6,122.5,103L122.5,103z"/>
			</g>
			<g>
				<path fill="#383849" d="M109.8,189.7c-0.2,16.6-5.9,32.5-16.5,45.4c-1.3,1.6,0.9,3.8,2.2,2.2c11.1-13.5,17.2-30.1,17.4-47.6
					C112.9,187.7,109.8,187.7,109.8,189.7L109.8,189.7z"/>
			</g>
		</g>
		<g>
			<g>
				<path fill="#DBE3FF" d="M136,135.3c3.4-2.1,7-4.3,10.9-5.2c3.9-1,8.4-0.6,11.6,1.9c4.2,3.4,5,9.8,3.2,14.9
					c-1.8,5.1-5.7,9.1-9.6,12.9c-8.3,7.9-17.3,15.3-27.7,20.2c-5.2,2.4-11.1,4.2-16.7,2.7c-10.1-2.6-15.6-17-7.8-24.8
					c4.1-4.2,10.8-6.9,15.7-9.9C122.4,143.7,129.2,139.5,136,135.3z"/>
				
					<path fill="none" stroke="#ABC6FF" stroke-width="0.6771" stroke-linecap="round" stroke-linejoin="round" stroke-miterlimit="10" d="
					M109.4,151.3c11.9-7,23.7-14,35.6-21"/>
				
					<path fill="none" stroke="#ABC6FF" stroke-width="0.6771" stroke-linecap="round" stroke-linejoin="round" stroke-miterlimit="10" d="
					M107.4,148.3c3-0.2,5.3-0.5,8.3-0.7"/>
			</g>
			<g>
				<path fill="#7D97FF" d="M165,139.3c-2.7-3.9-5.3-7.7-8-11.6c-0.7-1-7.9,1.1-8.8,3.3c-0.6,1.4,1,5.3,2.9,8.8
					c1.9,3.5,6.1,6.6,9.3,7.3C162.6,145.3,165.5,139.9,165,139.3z"/>
				<path fill="#383849" d="M156.6,128.1c0,0-3,0.7-1,4.7c0.5,1.1,3.1,4.7,3.8,5.6c2,2.8,4.9,1.1,4.9,1.1L156.6,128.1z"/>
				
					<path fill="none" stroke="#383849" stroke-width="0.6771" stroke-linecap="round" stroke-linejoin="round" stroke-miterlimit="10" d="
					M148.7,132.4c2.1-1.2,4.6-1.9,7-1.9"/>
				
					<path fill="none" stroke="#383849" stroke-width="0.6771" stroke-linecap="round" stroke-linejoin="round" stroke-miterlimit="10" d="
					M149.7,136.3c2.3-1.5,4.6-3.1,6.9-4.6"/>
				
					<path fill="none" stroke="#383849" stroke-width="0.6771" stroke-linecap="round" stroke-linejoin="round" stroke-miterlimit="10" d="
					M151.6,139.7c2.1-1.6,4.2-3.2,6.3-4.8"/>
				
					<path fill="none" stroke="#383849" stroke-width="0.6771" stroke-linecap="round" stroke-linejoin="round" stroke-miterlimit="10" d="
					M154.4,143.2c2-1.7,3.7-3.5,5.3-5.6"/>
				
					<path fill="none" stroke="#383849" stroke-width="0.6771" stroke-linecap="round" stroke-linejoin="round" stroke-miterlimit="10" d="
					M158.2,145.7c1.8-1.9,3.1-4.3,4-6.7"/>
			</g>
			
				<path fill="none" stroke="#ABC6FF" stroke-width="0.6771" stroke-linecap="round" stroke-linejoin="round" stroke-miterlimit="10" d="
				M103.3,179.8c-0.4-11,3.3-21.2,9.4-30.3"/>
			
				<path fill="none" stroke="#ABC6FF" stroke-width="0.6771" stroke-linecap="round" stroke-linejoin="round" stroke-miterlimit="10" d="
				M129,177.5c-3.3-10.6-5.5-22.2-6.4-33.3"/>
			
				<path fill="none" stroke="#ABC6FF" stroke-width="0.6771" stroke-linecap="round" stroke-linejoin="round" stroke-miterlimit="10" d="
				M148.2,163.7c-2.8-9.5-8.9-20.4-11.3-28.1"/>
		</g>
		<g>
			<path fill="#FFAE90" d="M156.3,129.5c0,0-0.9,2.6,1.8,6.2c3.1,4.1,5.4,3.6,5.4,3.6l8.7-3.7l-0.7-13l-7.7-2L156.3,129.5z"/>
			<path fill="none" stroke="#FF906E" stroke-width="0.7863" stroke-linecap="round" stroke-miterlimit="10" d="M166.6,123.7
				c1.6,0.1,3.2,0.5,4.7,1.1"/>
			<path fill="none" stroke="#FF906E" stroke-width="0.7863" stroke-linecap="round" stroke-miterlimit="10" d="M166.8,127
				c1.5,0.1,3,0.4,4.5,0.9"/>
			<path fill="none" stroke="#FF906E" stroke-width="0.7863" stroke-linecap="round" stroke-miterlimit="10" d="M167.5,131.1
				c1.4,0.4,2.9,0.7,4.3,1.1"/>
			<path fill="none" stroke="#FF906E" stroke-width="0.7863" stroke-linecap="round" stroke-miterlimit="10" d="M163.5,138.8
				c1,0.1,3.1-1.1,3.9-2.6"/>
			<path fill="none" stroke="#FF906E" stroke-width="0.7863" stroke-linecap="round" stroke-miterlimit="10" d="M166.9,135.5
				c0.7,0.3,1.5,0.5,2.3,0.5"/>
			<path fill="none" stroke="#FF906E" stroke-width="0.7863" stroke-linecap="round" stroke-miterlimit="10" d="M164.2,123.3
				c0,0.1,0,0.1,0.1,0.2"/>
			<path fill="none" stroke="#FF906E" stroke-width="0.7863" stroke-linecap="round" stroke-miterlimit="10" d="M164.7,126.7
				c0,0.1,0,0.2,0,0.2"/>
			<path fill="none" stroke="#FF906E" stroke-width="0.7863" stroke-linecap="round" stroke-miterlimit="10" d="M165.3,130.9
				C165.3,130.9,165.3,130.9,165.3,130.9"/>
		</g>
	</g>
</g>
</svg>
